PathFileType	4	(X/Y/Z)	Run_400 01
DataRate	CameraRate	NumFrames	NumMarkers	Units	OrigDataRate	OrigDataStartFrame	OrigNumFrames
120	120	7	42	mm	120	1	128
Frame#	Time	LASI			RASI			LPSI			RPSI			RTH1			RTH2			RTH3			LTH1			LTH2			LTH3			RTB1			RTB2			RTB3			LTB1			LTB2			LTB3			RCAL			RTOE			RMT5			LCAL			LTOE			LMT5			LACR			RACR			CLAV			C7			RUA1			RUA2			RUA3			RLEL			RMEL			LUA1			LUA2			LUA3			LLEL			LMEL			RFAsuperior			RFAradius			RFAulna			LFAsuperior			LFAradius			LFAulna		
		X1	Y1	Z1	X2	Y2	Z2	X3	Y3	Z3	X4	Y4	Z4	X5	Y5	Z5	X6	Y6	Z6	X7	Y7	Z7	X8	Y8	Z8	X9	Y9	Z9	X10	Y10	Z10	X11	Y11	Z11	X12	Y12	Z12	X13	Y13	Z13	X14	Y14	Z14	X15	Y15	Z15	X16	Y16	Z16	X17	Y17	Z17	X18	Y18	Z18	X19	Y19	Z19	X20	Y20	Z20	X21	Y21	Z21	X22	Y22	Z22	X23	Y23	Z23	X24	Y24	Z24	X25	Y25	Z25	X26	Y26	Z26	X27	Y27	Z27	X28	Y28	Z28	X29	Y29	Z29	X30	Y30	Z30	X31	Y31	Z31	X32	Y32	Z32	X33	Y33	Z33	X34	Y34	Z34	X35	Y35	Z35	X36	Y36	Z36	X37	Y37	Z37	X38	Y38	Z38	X39	Y39	Z39	X40	Y40	Z40	X41	Y41	Z41	X42	Y42	Z42	

1	  0.008333	752.584479	1018.514254	-507.732816	747.517790	1051.986053	-268.036259	587.844518	1063.802669	-426.112495	587.599748	1065.551743	-338.644703	779.331580	889.391891	-215.282068	894.618144	820.789356	-231.269388	887.357476	675.278206	-238.240490	661.255975	884.345143	-552.088287	662.279765	761.130239	-537.744665	535.080809	667.446317	-528.042291	955.801609	483.466749	-289.213241	894.478723	431.056588	-240.568097	881.560384	317.716608	-309.474514	454.040147	431.145827	-469.369308	350.277769	380.589654	-518.272456	317.904479	295.954301	-450.246669	735.914850	214.776259	-329.778805	946.552511	152.316866	-315.821493	900.939079	139.538576	-227.814857	170.117313	297.126918	-445.687617	275.385205	108.103015	-430.300107	220.300016	103.118771	-506.568737	785.113740	1482.917234	-543.816069	685.816318	1495.862418	-192.825228	817.402939	1449.703782	-311.594750	702.386008	1536.069233	-380.469409	615.577674	1431.575357	-127.528033	602.675683	1362.144424	-114.202677	502.609371	1392.982396	-114.040501	477.643491	1315.996783	-58.959663	446.704369	1302.056985	-140.242237	777.728681	1424.493316	-612.984107	719.760158	1360.587214	-638.122014	790.722605	1343.752625	-669.973283	793.827256	1253.817570	-736.902193	733.705786	1194.836269	-702.671430	532.507962	1254.173518	-43.221417	646.643038	1130.612480	-64.414795	586.593897	1096.279121	-64.780364	851.572641	1258.675813	-693.361767	939.132077	1237.398996	-540.256543	956.748262	1185.456283	-577.732383	
2	  0.016667	754.094687	1022.213427	-505.087685	747.927923	1053.722526	-266.934442	589.775080	1067.694322	-426.706548	589.592255	1069.896002	-338.647585	778.057480	887.801366	-214.507836	894.295934	817.294211	-232.064018	883.611335	671.941701	-238.123962	663.259775	886.898914	-551.519476	665.443903	763.365352	-539.935557	539.219950	667.935175	-529.741152	960.445407	479.252087	-288.619829	903.453374	421.880046	-240.292661	902.236824	308.016773	-308.996635	449.432599	434.246238	-470.604994	342.586777	390.379844	-518.251169	304.093010	309.568147	-449.581573	767.401568	190.853504	-329.555671	982.931861	152.503193	-317.374380	940.108660	133.219911	-229.642500	158.724166	321.759962	-446.905367	247.701559	125.603264	-425.616789	194.167271	122.614426	-502.050967	787.007516	1485.746414	-541.718488	685.342125	1497.181092	-192.259660	817.173404	1451.524786	-309.873538	703.522081	1538.298002	-379.185458	615.056304	1434.214330	-126.547201	601.836421	1365.006525	-112.691163	501.904907	1396.173814	-112.906015	476.064130	1319.492641	-57.945425	446.041588	1305.263368	-139.262199	779.693251	1428.571845	-611.372987	720.787279	1367.370797	-638.707029	791.687932	1348.543776	-670.099584	793.000074	1258.049499	-736.623116	730.105589	1200.548584	-703.673279	530.723298	1257.996584	-41.085899	645.963255	1134.850157	-60.858169	586.080338	1100.244279	-61.364472	850.031424	1261.657707	-692.338594	933.293824	1238.302928	-536.853570	951.259005	1186.594940	-574.674776	
3	  0.025000	755.465613	1025.623587	-502.821749	748.278791	1054.773947	-265.603886	591.506558	1071.144424	-426.945580	591.317633	1073.566205	-338.430250	776.723254	885.701645	-213.565588	893.193710	812.919950	-232.791858	878.898432	667.316141	-238.072057	665.640140	888.869437	-550.910512	669.371919	765.045168	-541.272107	544.483813	667.586066	-531.305511	964.091352	474.838073	-288.248196	911.543665	413.180725	-240.076330	921.228738	299.246390	-308.776151	445.701016	437.524550	-470.996500	336.185415	400.491205	-517.978811	291.259682	324.339556	-448.591861	797.352879	169.351427	-329.597259	1016.270731	153.620614	-318.687004	976.171924	128.364538	-231.265598	147.718568	346.963976	-448.545566	221.954812	145.366848	-420.435419	170.122355	143.462922	-497.713023	788.640114	1488.012038	-539.732053	685.197938	1497.986832	-191.446188	817.050601	1452.875897	-308.165589	704.645424	1540.032853	-377.829615	614.944157	1436.248532	-125.339350	601.451590	1367.170793	-111.015061	501.604492	1398.687404	-111.599179	475.095614	1322.266881	-56.656009	445.868806	1307.687306	-137.994546	781.254585	1432.017822	-609.789758	721.547314	1373.441194	-639.077291	792.084508	1352.630512	-669.976768	791.483378	1261.619277	-736.447255	725.922014	1205.737423	-704.490852	529.589149	1261.135864	-38.704520	646.023080	1138.462408	-56.922658	586.246347	1103.574756	-57.792718	848.008520	1263.858030	-691.511183	927.299376	1238.462636	-533.913821	945.263683	1186.822783	-571.966970	
4	  0.033333	756.673623	1028.499572	-501.185106	748.508865	1054.738973	-263.993096	592.957444	1073.814237	-426.641331	592.635457	1076.062428	-337.920115	775.309711	882.813887	-212.285288	890.755737	807.103916	-233.444271	872.729770	660.880393	-238.080498	668.605885	889.912185	-550.273061	674.363853	765.810374	-541.320740	551.362018	665.958183	-532.591819	966.124322	470.228982	-288.326740	918.263188	405.343014	-239.979991	937.332354	292.025943	-308.997330	443.448507	441.095523	-470.214629	331.904344	411.091312	-517.390963	280.255460	340.797938	-447.250705	824.341014	151.857311	-329.954913	1044.455511	155.788643	-319.720327	1006.982499	125.569858	-232.619785	137.931080	373.102067	-450.732448	199.323827	168.407534	-414.826026	149.293183	166.516761	-493.741879	789.851909	1489.358543	-537.912286	685.541085	1497.957909	-190.256717	817.087610	1453.431638	-306.494796	705.706034	1540.968458	-376.348857	615.448789	1437.283648	-123.759414	601.786380	1368.190699	-109.071813	501.942092	1400.071601	-110.012699	475.106719	1323.846918	-54.909551	446.441207	1308.802544	-136.228674	782.151604	1434.442079	-608.286242	721.808292	1378.290207	-639.052002	791.535751	1355.515331	-669.411511	788.831179	1264.105267	-736.401954	720.789790	1210.056339	-704.962823	529.538609	1263.154243	-35.948310	647.273796	1141.036091	-52.449136	587.543623	1105.857438	-53.953061	845.183329	1264.807351	-691.078143	921.057717	1237.389307	-531.745581	938.493435	1185.581661	-569.898088	
5	  0.041667	757.822668	1030.621544	-500.274160	748.558170	1053.573848	-262.283394	594.176492	1075.459216	-425.827192	593.551452	1077.093487	-337.213054	773.822922	879.110637	-210.584417	886.755147	799.702306	-234.069131	865.331325	653.097011	-238.124619	672.160676	889.929172	-549.645820	680.171430	765.545321	-540.234094	559.536843	663.118729	-533.479732	966.467124	465.617843	-289.014504	923.487302	398.539867	-240.094487	949.972896	286.463844	-309.682028	442.938466	444.920477	-468.600857	329.987648	422.146882	-516.638050	271.730370	358.656193	-445.871635	847.090208	138.737070	-330.411470	1066.578267	158.195400	-320.621059	1031.617774	124.372485	-233.780872	130.625393	400.237182	-453.176899	180.101314	194.200690	-409.544458	131.693209	191.968894	-490.355947	790.604805	1489.687939	-536.253385	686.311378	1497.002650	-188.708992	817.254521	1453.053450	-304.919402	706.614706	1541.014658	-374.712126	616.526742	1437.169579	-121.781009	602.861419	1367.931429	-106.835829	502.931990	1400.135535	-108.102047	476.152384	1324.053417	-52.637183	447.725565	1308.390167	-133.854160	782.299900	1435.746452	-606.913152	721.372764	1381.695473	-638.505508	789.925368	1357.020355	-668.377602	784.915817	1265.402143	-736.422876	714.654791	1213.385867	-704.990107	530.714383	1263.910871	-32.821817	649.806003	1142.425163	-47.561929	590.123684	1106.953421	-49.792250	841.441124	1264.430441	-691.188088	914.568841	1234.923495	-530.449766	930.965800	1182.760234	-568.629609	
6	  0.050000	759.054933	1031.768705	-500.048921	748.382661	1051.466212	-260.792280	595.251147	1075.860933	-424.689450	594.110625	1076.523308	-336.447084	772.230994	874.677727	-208.592564	881.336900	790.988063	-234.704085	857.533356	645.002238	-238.252636	676.182401	888.907989	-549.024195	686.273554	764.298767	-538.577353	568.226766	659.445352	-533.936241	965.453344	461.193335	-290.267112	927.118262	392.665192	-240.519104	959.072309	282.159601	-310.630606	444.199591	448.746944	-466.896034	330.285042	433.507480	-515.941962	266.087360	377.133228	-444.869641	864.606352	129.286967	-330.648933	1082.635345	159.654073	-321.554472	1050.013682	123.711610	-234.865398	127.013327	428.174484	-455.296516	164.161498	221.403499	-405.626893	116.863285	219.561426	-487.827821	790.919314	1489.055416	-534.724500	687.322723	1495.151265	-186.901828	817.456252	1451.735225	-303.526841	707.281632	1540.186436	-372.903036	617.990113	1435.882097	-119.470058	604.538521	1366.447029	-104.322211	504.443559	1398.821069	-105.827607	478.080625	1322.864632	-49.830842	449.516564	1306.412433	-130.826884	781.717387	1435.989407	-605.674804	720.061672	1383.663133	-637.382220	787.321455	1357.268719	-667.092305	779.832272	1265.622182	-736.404795	707.707618	1215.755133	-704.567423	533.042998	1263.431027	-29.386999	653.490245	1142.660409	-42.540585	593.925790	1106.891582	-45.291296	836.804902	1262.882183	-691.845527	907.908338	1231.129881	-529.971598	922.857642	1178.531342	-568.153378	
7	  0.058333	760.445701	1031.759911	-500.282195	747.971010	1048.656086	-259.799437	596.199712	1074.798638	-423.458862	594.265787	1074.318671	-335.661665	770.411055	869.609132	-206.591901	875.069836	781.708046	-235.259397	850.389911	637.567032	-238.588347	680.518160	886.812992	-548.327732	692.211546	762.181388	-536.953643	576.740930	655.311168	-534.062910	963.531530	456.975642	-291.814621	928.873394	387.396995	-241.297077	964.762060	278.414031	-311.547812	447.150494	452.157797	-465.779665	332.543278	445.008251	-515.417319	263.474057	395.454291	-444.456247	876.363438	122.169047	-330.509241	1093.044785	159.392267	-322.582598	1062.452487	122.615826	-235.929435	127.748567	456.532204	-456.481303	151.512139	248.795223	-403.799363	104.668129	248.858791	-486.455289	790.809239	1487.530629	-533.308386	688.393956	1492.419215	-184.937748	817.601344	1449.510588	-302.369464	707.660924	1538.487134	-370.927077	619.657224	1433.388951	-116.917154	606.654799	1363.813961	-101.538035	506.319938	1396.063964	-103.111407	480.701513	1320.261339	-46.479081	451.615379	1302.860455	-127.121651	780.428542	1435.227749	-604.525180	717.729707	1384.303201	-635.708755	783.835838	1356.538550	-665.908153	773.750644	1264.936480	-736.265312	700.216242	1217.226284	-703.766603	536.361904	1261.738218	-25.673380	658.176452	1141.822287	-37.615873	598.829399	1105.727239	-40.429586	831.338149	1260.321101	-692.867378	901.185976	1226.134201	-530.190505	914.347503	1173.116763	-568.321061	
